<?xml version="1.0" encoding="utf-8"?>
<svg version="1.1" id="Layer_1" xmlns="http://www.w3.org/2000/svg" xmlns:xlink="http://www.w3.org/1999/xlink" x="0px" y="0px" viewBox="0 0 500 200" style="enable-background:new 0 0 500 200;" xml:space="preserve">
<style type="text/css">
	.st0{fill:#FFFFFF;}
</style>
<g>
	<g>
		<circle class="st0" cx="135" cy="153.2" r="7.2"/>
		<path class="st0" d="M111.9,146.7c-3.2,0-5.8,2.6-5.8,5.8v0c0,3.2,2.6,5.8,5.8,5.8s5.8-2.6,5.8-5.8v0
			C117.8,149.4,115.2,146.7,111.9,146.7z"/>
		<path class="st0" d="M150.3,163.1c-1.5,0-2.7,1.2-2.7,2.7v0c0,1.5,1.2,2.7,2.7,2.7c1.5,0,2.7-1.2,2.7-2.7v0
			C153.1,164.3,151.9,163.1,150.3,163.1z"/>
		<circle class="st0" cx="123.8" cy="167.9" r="3.8"/>
		<g>
			<path class="st0" d="M55.6,66.6c0.7,0.2,1.4,0.3,2.2,0.2c0.1,0,0.1,0,0.2,0c4.2,0,7.7-3.4,7.7-7.7s-3.4-7.7-7.7-7.7
				s-7.7,3.4-7.7,7.7c0,3,1.7,5.6,4.2,6.9C54.8,66.2,55.2,66.4,55.6,66.6z"/>
			<path class="st0" d="M107.7,117.1c5.6-8.9,8.8-19.4,8.8-30.7c0-28.1-20-51.5-46.6-56.9c-3.9-0.8-8-1.3-12.2-1.3
				C25.7,28.3,0,54.4,0,86.5c0,27.2,18.3,50,43.4,56.4C39.3,141,11.7,122,12,84.8c0.2-23.9,20.3-43.3,44.2-44.1
				c26-0.9,47.4,20.1,47.4,45.9c0,19.2-11.6,35.4-28.1,42.2c-3.5,1.2-15.7,4-25.8-9.8c-6.7-10.1-5.9-20.9-5.6-23.8
				c0.6-6.1,5.1-10.5,10.9-10.5c0.4,0,0.7,0,1.1,0c6.7,0.6,11,5.1,10.7,11.4c-0.2,5.2-1.6,10.7-3.9,15.5l-0.2,0.5
				c-0.3,0.7-0.7,1.6-1.1,2.3c-0.4,0.8-0.4,1.7-0.2,2.5c0.5,1.9,2.3,3,4.2,2.7l0.1,0c1-0.2,1.9-0.7,2.5-1.6c5-7.4,8.7-15.2,8.8-24.5
				c0-5.6-2-10.7-5.6-14.4c-3.8-3.9-9.3-6-15.3-6c-0.4,0-0.8,0-1.3,0c-3,0.1-5.9,0.8-8.4,1.9l0,0c0,0-12.8,4.1-13.8,18.9
				c-1,8.2-0.3,22.1,11.9,35.5c1.4,1.6,3,3.2,4.7,4.6c0,0,0,0,0,0l0,0c1.9,1.6,4.1,3,6.4,4.2c1.1,0.6,2.2,1.2,3.4,1.7
				c0.1,0,0.1,0.1,0.2,0.1c0,0,0,0,0,0l0,0c2.2,0.9,4.4,1.5,6.7,1.8c0,0,0,0,0,0l0,0c5,0.7,10.2,0.1,15.1-2.1
				c3.8-1.7,7.4-3.7,10.8-6.2l9.4,8.8c2.5-2.3,5.8-3.7,9.5-3.7c5.8,0,10.7,3.5,12.9,8.4c1.2-3.2,3.8-5.7,7.1-6.6L107.7,117.1z"/>
		</g>
	</g>
	<g>
		<path class="st0" d="M230.4,75.1c-2.8-2.4-6.8-3.6-11.6-3.6c-2.9,0-5.9,0.3-8.8,0.9c-3,0.6-5.4,1.5-7.1,2.6l-0.3,0.2v7.8l1.1-0.9
			c1.6-1.3,3.6-2.3,6-2.9c2.4-0.7,4.8-1,7.2-1c7,0,10.4,2.9,10.4,8.8V91c-3.3-1.7-7.6-2.5-12.6-2.5c-5,0-9,1.2-11.8,3.6
			c-2.9,2.4-4.4,6.3-4.4,11.4c0,4.8,1.7,8.4,5.1,10.4c3.3,2,7.2,3.1,11.8,3.1c5.9,0,10.6-0.7,14-2.1c3.6-1.5,5.4-4.4,5.4-8.8V85.7
			C234.7,81.1,233.3,77.5,230.4,75.1z M216.7,110.2c-3.1,0-5.7-0.6-7.8-1.9c-2-1.2-3-3.1-3-5.8c0-2.4,0.8-4.1,2.6-5.4
			c1.8-1.3,4.4-1.9,7.8-1.9c2.1,0,4.2,0.2,6.2,0.6c1.8,0.4,3.4,0.9,4.8,1.5v9c0,1.5-0.7,2.5-2.2,3
			C223.4,110,220.6,110.2,216.7,110.2z"/>
		<path class="st0" d="M268.6,92.7c-1.7-0.7-4-1.6-6.8-2.5c-2.2-0.6-4-1.2-5.3-1.7c-1.2-0.5-2.3-1.2-3.1-2c-0.8-0.8-1.1-1.8-1.1-3.1
			c0-1.6,0.7-2.7,2.3-3.6c1.6-0.9,3.7-1.4,6-1.4c1.9,0,3.6,0.3,5,0.8c1.5,0.6,3.6,1.5,6.4,2.9l1,0.5V75l-0.4-0.2
			c-2.7-1.2-4.9-2-6.4-2.6c-1.6-0.5-3.6-0.8-5.9-0.8c-2.5,0-5,0.5-7.3,1.4c-2.4,0.9-4.3,2.3-5.8,4.2c-1.5,1.9-2.3,4.3-2.3,7.2
			c0,2.9,0.7,5.2,2.1,6.8c1.4,1.7,3,2.9,4.9,3.6c1.8,0.7,4.3,1.6,7.5,2.4l2.2,0.9c2.2,0.9,3.9,1.7,4.9,2.6c0.9,0.7,1.4,1.9,1.4,3.4
			c0,1.8-0.8,3.1-2.4,4.3c-1.6,1.2-3.8,1.7-6.5,1.7c-2.4,0-4.6-0.3-6.3-0.9c-1.8-0.6-4.1-1.8-6.9-3.4l-1-0.6v8l0.4,0.2
			c2.4,1.3,4.7,2.2,6.8,2.8c2.1,0.6,4.6,0.9,7.5,0.9c2.6,0,5.1-0.5,7.6-1.5c2.4-1,4.4-2.5,6-4.6c1.5-2.1,2.3-4.6,2.3-7.6
			c0-2.8-0.7-5.2-2-6.9C271.9,94.8,270.4,93.5,268.6,92.7z"/>
		<path class="st0" d="M302.5,105.4l-12.9-33.2h-8.4l17.8,43c-1.1,3.3-2.3,5.9-3.6,7.5c-1.2,1.6-2.9,2.4-5.1,2.4
			c-1.2,0-2.3-0.2-3.4-0.7L286,124v7.1l0.4,0.2c1.4,0.5,2.8,0.8,4.2,0.8c2.6,0,5.1-1,7.5-2.8c2.4-1.9,4.6-5.1,6.3-9.7l18.4-47.2
			h-7.5L302.5,105.4z"/>
		<rect x="330.9" y="105.9" class="st0" width="9.8" height="9.8"/>
		<path class="st0" d="M355.6,117.2c0,1.9-0.2,3.4-0.6,4.5c-0.4,1-1.1,1.8-2.2,2.4c-1.1,0.6-2.9,0.9-5.1,1l-0.7,0v7h0.7
			c5.1,0,9-1.2,11.5-3.6c2.5-2.4,3.8-6.1,3.8-10.9V72.3h-7.4V117.2z"/>
		<rect x="355.3" y="56.7" class="st0" width="8.1" height="8"/>
		<path class="st0" d="M393.3,71.5c-6.4,0-11.4,1.9-14.8,5.8c-3.4,3.8-5.1,9.5-5.1,16.9c0,7.3,1.7,13,5,16.9c3.4,4,8.4,6,15.1,6
			c6.3,0,11.3-2.1,14.8-6.1c3.5-4,5.2-9.7,5.2-16.8c0-6.9-1.7-12.5-5-16.5C405.2,73.6,400.1,71.5,393.3,71.5z M406.1,94.1
			c0,10.7-4.1,16-12.7,16c-8.5,0-12.6-5.2-12.6-16c0-10.6,4.1-15.7,12.6-15.7c4.5,0,7.7,1.3,9.7,3.9C405.1,85,406.1,89,406.1,94.1z"
			/>
		<path class="st0" d="M441.6,71.6c-1.5,0-3.4,0.2-5.6,0.7c-1.8,0.4-3.5,0.9-5.1,1.4V54.4h-7.4v53.4c0,6,5.9,9.1,17.6,9.1
			c5.5,0,10.3-1.7,14.3-5.2c4-3.5,6.1-9.6,6.1-18.4c0-6.8-1.7-12.2-5-16C453.1,73.5,448.1,71.6,441.6,71.6z M453.8,93.4
			c0,5.2-1,9.3-2.9,12.3c-1.9,2.9-5.4,4.3-10.6,4.3c-2.6,0-4.9-0.3-6.8-0.9c-2.2-0.7-2.5-1.9-2.5-2.7V81.2c1.5-0.8,3.2-1.5,5-1.9
			c1.9-0.5,3.8-0.7,5.6-0.7c4.2,0,7.2,1.3,9.2,3.9C452.7,85.1,453.8,88.8,453.8,93.4z"/>
		<path class="st0" d="M498,96.4c-1.3-1.7-2.9-2.9-4.6-3.7c-1.7-0.7-4-1.6-6.8-2.5c-2.2-0.6-4-1.2-5.3-1.7c-1.2-0.5-2.3-1.2-3.1-2
			c-0.8-0.8-1.1-1.8-1.1-3.1c0-1.6,0.7-2.7,2.3-3.6c1.6-0.9,3.7-1.4,6-1.4c1.9,0,3.6,0.3,5,0.8c1.5,0.6,3.6,1.5,6.4,2.9l1,0.5V75
			l-0.4-0.2c-2.7-1.2-4.9-2-6.4-2.6c-1.6-0.5-3.6-0.8-5.9-0.8c-2.5,0-5,0.5-7.3,1.4c-2.4,0.9-4.3,2.3-5.8,4.2
			c-1.5,1.9-2.3,4.3-2.3,7.2c0,2.9,0.7,5.2,2.1,6.8c1.4,1.7,3,2.9,4.9,3.6c1.8,0.7,4.3,1.6,7.5,2.4l2.2,0.9c2.2,0.9,3.9,1.7,4.9,2.6
			c0.9,0.7,1.4,1.9,1.4,3.4c0,1.8-0.8,3.1-2.4,4.3c-1.6,1.2-3.8,1.7-6.5,1.7c-2.4,0-4.6-0.3-6.3-0.9c-1.8-0.6-4.1-1.8-6.9-3.4
			l-1-0.6v8l0.4,0.2c2.4,1.3,4.7,2.2,6.8,2.8c2.1,0.6,4.6,0.9,7.5,0.9c2.6,0,5.1-0.5,7.6-1.5c2.4-1,4.4-2.5,6-4.6
			c1.5-2.1,2.3-4.6,2.3-7.6C500,100.5,499.3,98.2,498,96.4z"/>
		<path class="st0" d="M190,95.7l0-0.7c0.1-7-1.4-12.8-4.4-17h0c-3.1-4.3-8-6.5-14.6-6.5c-6,0-10.8,1.9-14.1,5.8
			c-3.3,3.8-5,9.4-5,16.7c0,7.5,1.8,13.2,5.3,17.1c3.5,3.9,8.5,5.9,14.8,5.9c5.8,0,10.9-1,15.1-3l0.4-0.2v-7.9l-1,0.6
			c-3.9,2.3-8.6,3.5-14.1,3.5c-4.2,0-7.4-1.3-9.6-3.8c-2.1-2.4-3.3-6-3.4-10.5v0c0-2.2,0.1-4.4,0.3-6.6l0-0.3c0.5-3.8,1.6-6.5,3.3-8
			c1.8-1.6,4.5-2.4,8-2.4c3.6,0,6.4,0.9,8.2,2.7c1.7,1.7,2.7,4.3,3.1,7.7H158v6.9H190z"/>
	</g>
</g>
</svg>
